# xmcd
#
# Track frame offsets:
#	182
#	13845
#	29132
#	50207
#	68670
#	83470
#	101420
#	118207
#
# Disc length: 1846
#
# Revision: 1
# Processed by: cddbd v1.5.1PL0 Copyright (c) Steve Scherf et al.
# Submitted via: MP3c 0.26
# Normalized: r0:TDELIM( - )
#
DISCID=69073408
DTITLE=Viva Nashvegas - Spring 1997
DYEAR=1900
DGENRE=
TTITLE0=Lonestar - Keys to my heart
TTITLE1=Tammy Graham - Tell me again
TTITLE2=Lee Roy Parnell - All that matters anymore
TTITLE3=BlackHawk - Stepping stones
TTITLE4=Sherrie Austin - I want to fall in love (so hard it hurts)
TTITLE5=Kentucky Headhunters - See Rock City
TTITLE6=Aaron Tippin - Thats what happens when I hold you
TTITLE7=Diamond Rio - Walkin' in Jerusalem
EXTD=
EXTT0=
EXTT1=
EXTT2=
EXTT3=
EXTT4=
EXTT5=
EXTT6=
EXTT7=
PLAYORDER=
